<svg width="49" height="48" viewBox="0 0 49 48" fill="none" xmlns="http://www.w3.org/2000/svg">
<path d="M26.6653 0.0209961L0.754883 12.7236V35.4627L22.3349 47.9573L48.2453 33.514V10.7749L26.6653 0.0209961Z" fill="url(#paint0_linear_344_147)"/>
<path d="M13.6569 25.0061L9.41134 22.8026C8.58346 22.3738 7.78106 22.705 7.6452 23.5881C7.47963 24.5009 8.06551 25.5495 8.94009 26.0377L13.4573 28.4025C13.7078 28.5214 13.9668 28.5808 14.2003 28.5766C14.7522 28.5511 15.1258 28.152 15.1513 27.5024C15.2065 26.5812 14.5527 25.5028 13.6569 25.0061Z" fill="#593E37"/>
<path d="M13.8821 23.4907L9.49219 21.1344V17.1309L13.8014 19.2749L13.8821 23.4907Z" fill="#A17F69"/>
<path d="M13.5934 42.8543L9.49219 40.4768V35.6709L13.5934 38.1163V42.8543Z" fill="#A17F69"/>
<path d="M0.754883 12.7236L22.3731 23.4606L48.2453 10.5754L26.6653 0.0209961L0.754883 12.7236Z" fill="#FFE082"/>
<path d="M39.423 6.27082L35.1987 4.16504L9.53027 17.1309L13.8013 19.2749L39.423 6.27082Z" fill="#C99470"/>
<path d="M22.373 23.461V48.0002L48.2452 33.5145V10.7754L22.373 23.461Z" fill="url(#paint1_linear_344_147)"/>
<path opacity="0.2" d="M26.6695 1.41801L46.9758 11.3526V32.7501L22.4028 46.5056L2.02854 34.7072V13.4966L26.6695 1.41801ZM26.6653 0L0.754883 12.7026V35.4417L22.3349 47.9363L22.3731 47.9151V47.9788L48.2453 33.493V10.7539L48.0457 10.6563L48.2453 10.5586L26.6653 0Z" fill="#3B4B59"/>
<defs>
<linearGradient id="paint0_linear_344_147" x1="24.5001" y1="-0.688008" x2="24.5001" y2="47.5328" gradientUnits="userSpaceOnUse">
<stop offset="0.0059391" stop-color="#FFE2B8"/>
<stop offset="0.9219" stop-color="#FFA726"/>
</linearGradient>
<linearGradient id="paint1_linear_344_147" x1="35.3087" y1="20.8585" x2="35.3087" y2="44.8755" gradientUnits="userSpaceOnUse">
<stop offset="0.011" stop-color="#FFAF39"/>
<stop offset="0.927" stop-color="#DE8400"/>
</linearGradient>
</defs>
</svg>
