<svg width="49" height="48" viewBox="0 0 49 48" fill="none" xmlns="http://www.w3.org/2000/svg">
<path d="M24.416 47.9999C37.6587 47.9999 48.394 37.2646 48.394 24.0219C48.394 10.7792 37.6587 0.0439453 24.416 0.0439453C11.1733 0.0439453 0.437988 10.7792 0.437988 24.0219C0.437988 37.2646 11.1733 47.9999 24.416 47.9999Z" fill="url(#paint0_radial_344_133)"/>
<path opacity="0.2" d="M24.416 1.24645C36.9742 1.24645 47.1915 11.4637 47.1915 24.0219C47.1915 36.5801 36.9742 46.7974 24.416 46.7974C11.8578 46.7974 1.6405 36.5801 1.6405 24.0219C1.6405 11.4637 11.8578 1.24645 24.416 1.24645ZM24.416 0.0439453C11.1724 0.0439453 0.437988 10.7823 0.437988 24.0219C0.437988 37.2615 11.1724 47.9999 24.416 47.9999C37.6596 47.9999 48.394 37.2655 48.394 24.0219C48.394 10.7783 37.6556 0.0439453 24.416 0.0439453Z" fill="#434343"/>
<path d="M24.4161 40.7208C33.6386 40.7208 41.115 33.2445 41.115 24.022C41.115 14.7996 33.6386 7.32324 24.4161 7.32324C15.1936 7.32324 7.71729 14.7996 7.71729 24.022C7.71729 33.2445 15.1936 40.7208 24.4161 40.7208Z" fill="#FEFCE9"/>
<path d="M24.4158 34.7285C30.3288 34.7285 35.1221 29.9352 35.1221 24.0222C35.1221 18.1093 30.3288 13.3159 24.4158 13.3159C18.5029 13.3159 13.7095 18.1093 13.7095 24.0222C13.7095 29.9352 18.5029 34.7285 24.4158 34.7285Z" fill="url(#paint1_radial_344_133)"/>
<path d="M24.4163 27.2329C26.1895 27.2329 27.627 25.7954 27.627 24.0222C27.627 22.249 26.1895 20.8115 24.4163 20.8115C22.643 20.8115 21.2056 22.249 21.2056 24.0222C21.2056 25.7954 22.643 27.2329 24.4163 27.2329Z" fill="#FEFCE9"/>
<path d="M42.8748 5.68371L43.0151 2.30066C43.0792 0.777483 41.7244 -0.300765 40.2212 0.0760207L37.4314 0.769466C36.4694 1.00997 35.6998 1.7916 35.4794 2.75761L32.437 16.1215L32.4611 16.1094L42.8828 5.68772L42.8748 5.68371Z" fill="#09BCD4"/>
<path d="M42.8782 5.68399L46.2613 5.54369C47.7844 5.47956 48.8627 6.83438 48.4859 8.33752L47.7925 11.1273C47.552 12.0893 46.7703 12.8589 45.8043 13.0794L32.4404 16.1217L32.4525 16.0977L42.8742 5.67597L42.8782 5.68399Z" fill="#38A4DD"/>
<path d="M24.949 24.4749C24.3878 24.9759 23.6062 24.1943 24.1032 23.6331L39.1466 7.01849C39.808 6.35712 40.8822 6.35712 41.5436 7.01849C42.205 7.67987 42.205 8.75411 41.5436 9.41549L24.949 24.4749Z" fill="#1B87C9"/>
<path opacity="0.2" d="M40.8185 0.801671C41.2153 0.801671 41.5761 0.94998 41.8366 1.22255C42.0972 1.49111 42.2295 1.86388 42.2134 2.26873L42.0731 5.64376C42.0651 5.80009 42.1052 5.9524 42.1814 6.08067C42.2174 6.1408 42.2575 6.19291 42.3056 6.24101C42.4539 6.39332 42.6624 6.48552 42.8788 6.48552H42.9109L46.2859 6.34522H46.3541C46.803 6.34522 47.1958 6.52961 47.4564 6.8623C47.7289 7.20702 47.8171 7.676 47.7009 8.14097L47.0074 10.9308C46.8431 11.5922 46.2859 12.1413 45.6205 12.2936L34.5414 14.8189C34.4051 14.851 34.2809 14.9151 34.1807 15.0073L27.4947 21.0839L33.5473 14.398C33.6395 14.2978 33.7037 14.1735 33.7357 14.0373L36.265 2.93411C36.4173 2.26873 36.9625 1.71157 37.6279 1.54722L40.4177 0.853779C40.55 0.817704 40.6862 0.801671 40.8185 0.801671ZM40.8185 0C40.6221 0 40.4217 0.0240501 40.2213 0.0761587L37.4315 0.769604C36.4694 1.01011 35.6998 1.79173 35.4794 2.75775L32.9501 13.8609L24.1036 23.6292C23.7148 24.0662 24.0996 24.6313 24.5526 24.6313C24.6849 24.6313 24.8211 24.5832 24.9454 24.471L34.7218 15.6045L45.8009 13.0793C46.7629 12.8588 47.5486 12.0892 47.7891 11.1272L48.4825 8.33738C48.8473 6.86631 47.8251 5.54355 46.3581 5.54355C46.326 5.54355 46.2899 5.54355 46.2539 5.54756L42.8788 5.68785H42.8708V5.67984L43.0111 2.3048C43.0672 0.982046 42.0651 0 40.8185 0Z" fill="#434343"/>
<defs>
<radialGradient id="paint0_radial_344_133" cx="0" cy="0" r="1" gradientUnits="userSpaceOnUse" gradientTransform="translate(17.5637 12.7837) scale(24.9248 24.9247)">
<stop offset="0.4707" stop-color="#EF5451"/>
<stop offset="0.8338" stop-color="#E53A35"/>
</radialGradient>
<radialGradient id="paint1_radial_344_133" cx="0" cy="0" r="1" gradientUnits="userSpaceOnUse" gradientTransform="translate(22.3467 19.888) scale(12.2864 12.2864)">
<stop offset="0.4707" stop-color="#EF5451"/>
<stop offset="0.8338" stop-color="#E53A35"/>
</radialGradient>
</defs>
</svg>
